<?xml version="1.0" encoding="UTF-8"?>
<!-- Created with Inkscape (http://www.inkscape.org/) -->
<svg width="414" height="450" version="1.0" xml:space="preserve" xmlns="http://www.w3.org/2000/svg" xmlns:cc="http://creativecommons.org/ns#" xmlns:dc="http://purl.org/dc/elements/1.1/" xmlns:rdf="http://www.w3.org/1999/02/22-rdf-syntax-ns#">
<defs>
<style>
text { font-family: 'DejaVu Sans', Sans, sans-serif; font-size:18px; fill: #000000; }
tspan { stroke-width: .9217 }
rect { fill: #000000; }
circle { fill: #000000; }
</style>
</defs>
<metadata><rdf:RDF><cc:Work rdf:about="">
<dc:format>image/svg+xml</dc:format>
<dc:type rdf:resource="http://purl.org/dc/dcmitype/StillImage"/>
</cc:Work></rdf:RDF></metadata>


<circle cx="231.2" cy="50.1" r="4.609"/>
<rect x="263.5" y="45.5" width="27.65" height="9.217"/>
<circle cx="249.6" cy="50.1" r="4.609"/>
<circle cx="231.2" cy="68.5" r="4.609"/>
<circle cx="249.6" cy="68.5" r="4.609"/>
<circle cx="268.1" cy="68.5" r="4.609"/>
<rect x="281.9" y="63.9" width="27.65" height="9.217"/>
<circle cx="231.2" cy="86.9" r="4.609"/>
<rect x="245" y="82.3" width="27.65" height="9.217"/>
<rect x="281.9" y="82.3" width="27.65" height="9.217"/>
<rect x="226.6" y="100.8" width="27.65" height="9.217"/>
<circle cx="268.1" cy="105.4" r="4.609"/>
<circle cx="286.5" cy="105.4" r="4.609"/>
<rect x="300.3" y="100.8" width="27.65" height="9.217"/>
<rect x="226.6" y="119.2" width="27.65" height="9.217"/>
<rect x="281.9" y="119.2" width="27.65" height="9.217"/>
<rect x="318.8" y="119.2" width="27.65" height="9.217"/>
<circle cx="268.1" cy="123.8" r="4.609"/>
<rect x="226.6" y="137.6" width="27.65" height="9.217"/>
<rect x="263.5" y="137.6" width="27.65" height="9.217"/>
<circle cx="304.9" cy="142.2" r="4.609"/>
<circle cx="323.4" cy="142.2" r="4.609"/>
<text x="207.12" y="54.67">U</text>
<text x="207.64" y="73.10001">V</text>
<text x="205.05" y="91.31">W</text>
<text x="207.63" y="109.97">X</text>
<text x="207.66" y="128.41">Y</text>
<text x="208.17" y="146.84">Z</text>
<circle cx="37.65" cy="50.1" r="4.609"/>
<rect x="51.49" y="45.5" width="27.65" height="9.217"/>
<circle cx="74.76" cy="68.5" r="4.609"/>
<circle cx="92.95" cy="68.8" r="4.609"/>
<circle cx="111.4" cy="68.5" r="4.609"/>
<rect x="33.05" y="82.3" width="27.65" height="9.217"/>
<circle cx="74.49" cy="86.9" r="4.609"/>
<rect x="88.36" y="82.3" width="27.65" height="9.217"/>
<circle cx="129.9" cy="86.9" r="4.609"/>
<rect x="33.05" y="100.8" width="27.65" height="9.217"/>
<circle cx="74.43" cy="105.4" r="4.609"/>
<circle cx="92.95" cy="105.6" r="4.609"/>
<circle cx="37.65" cy="123.8" r="4.609"/>
<circle cx="37.65" cy="142.2" r="4.609"/>
<circle cx="56.09" cy="142.2" r="4.609"/>
<rect x="69.92" y="137.6" width="27.65" height="9.217"/>
<circle cx="111.4" cy="142.2" r="4.609"/>
<rect x="33.05" y="156.1" width="27.65" height="9.217"/>
<rect x="69.92" y="156.1" width="27.65" height="9.217"/>
<circle cx="111.4" cy="160.7" r="4.609"/>
<circle cx="37.65" cy="179.1" r="4.609"/>
<circle cx="56.09" cy="179.1" r="4.609"/>
<circle cx="74.52" cy="179.1" r="4.609"/>
<circle cx="92.95" cy="179.1" r="4.609"/>
<circle cx="37.65" cy="197.5" r="4.609"/>
<circle cx="56.09" cy="197.5" r="4.609"/>
<circle cx="37.65" cy="216" r="4.609"/>
<rect x="51.49" y="211.4" width="27.65" height="9.217"/>
<rect x="88.36" y="211.4" width="27.65" height="9.217"/>
<rect x="125.2" y="211.4" width="27.65" height="9.217"/>
<rect x="33.05" y="229.8" width="27.65" height="9.217"/>
<circle cx="74.52" cy="234.4" r="4.609"/>
<rect x="88.36" y="229.8" width="27.65" height="9.217"/>
<circle cx="37.65" cy="252.8" r="4.609"/>
<rect x="51.49" y="248.2" width="27.65" height="9.217"/>
<circle cx="92.95" cy="252.8" r="4.609"/>
<circle cx="111.4" cy="252.8" r="4.609"/>
<rect x="33.05" y="266.7" width="27.65" height="9.217"/>
<rect x="69.92" y="266.7" width="27.65" height="9.217"/>
<rect x="33.05" y="285.1" width="27.65" height="9.217"/>
<circle cx="74.52" cy="289.7" r="4.609"/>
<rect x="33.05" y="303.5" width="27.65" height="9.217"/>
<rect x="69.92" y="303.5" width="27.65" height="9.217"/>
<rect x="106.8" y="303.5" width="27.65" height="9.217"/>
<circle cx="37.65" cy="326.6" r="4.609"/>
<rect x="51.49" y="322" width="27.65" height="9.217"/>
<rect x="88.36" y="322" width="27.65" height="9.217"/>
<circle cx="129.8" cy="326.6" r="4.609"/>
<rect x="33.05" y="340.4" width="27.65" height="9.217"/>
<rect x="69.92" y="340.4" width="27.65" height="9.217"/>
<circle cx="111.4" cy="345" r="4.609"/>
<rect x="125.2" y="340.4" width="27.65" height="9.217"/>
<circle cx="37.65" cy="363.5" r="4.609"/>
<rect x="51.49" y="358.8" width="27.65" height="9.217"/>
<circle cx="92.95" cy="363.5" r="4.609"/>
<circle cx="74.52" cy="381.9" r="4.609"/>
<circle cx="56.09" cy="381.9" r="4.609"/>
<circle cx="37.65" cy="381.9" r="4.609"/>
<rect x="33.05" y="395.7" width="27.65" height="9.217"/>
<text x="13.32" y="54.67">A</text>
<text x="13.13" y="73.10">B</text>
<text x="12.71" y="91.31">C</text>
<text x="12.59" y="109.97">D</text>
<text x="13.08" y="128.41">E</text>
<text x="13.50" y="146.84">F</text>
<text x="12.38" y="165.05">G</text>
<text x="12.81" y="183.71">H</text>
<text x="16.87" y="202.14">I</text>
<text x="15.32" y="220.58">J</text>
<text x="12.66" y="239.01">K</text>
<text x="13.99" y="257.45">L</text>
<text x="11.80" y="275.88">M</text>
<text x="12.86" y="294.32">N</text>
<text x="12.26" y="312.75">O</text>
<text x="12.24" y="349.62">Q</text>
<text x="13.01" y="331.18">P</text>
<text x="12.20" y="368.05">R</text>
<text x="13.38" y="386.49">S</text>
<text x="13.80" y="404.92">T</text>
<rect x="33.05" y="63.9" width="27.65" height="9.217"/>
<rect x="245.0" y="229.6" width="27.65" height="9.217"/>
<rect x="281.9" y="229.6" width="27.65" height="9.217"/>
<rect x="281.9" y="229.6" width="27.65" height="9.217"/>
<rect x="318.8" y="229.6" width="27.65" height="9.217"/>
<rect x="355.7" y="229.6" width="27.65" height="9.217"/>
<circle cx="231.2" cy="234.2" r="4.609"/>
<circle cx="231.2" cy="252.6" r="4.609"/>
<circle cx="249.6" cy="252.6" r="4.609"/>
<rect x="263.5" y="248" width="27.65" height="9.217"/>
<rect x="300.3" y="248" width="27.65" height="9.217"/>
<rect x="337.2" y="248" width="27.65" height="9.217"/>
<circle cx="231.2" cy="271.1" r="4.609"/>
<circle cx="249.6" cy="271.1" r="4.609"/>
<circle cx="268.1" cy="271.1" r="4.609"/>
<rect x="281.9" y="266.4" width="27.65" height="9.217"/>
<rect x="318.8" y="266.4" width="27.65" height="9.217"/>
<circle cx="231.2" cy="289.5" r="4.609"/>
<circle cx="249.6" cy="289.5" r="4.609"/>
<circle cx="268.1" cy="289.5" r="4.609"/>
<circle cx="286.5" cy="289.5" r="4.609"/>
<rect x="300.3" y="284.9" width="27.65" height="9.217"/>
<circle cx="231.2" cy="307.9" r="4.609"/>
<circle cx="249.6" cy="307.9" r="4.609"/>
<circle cx="268.1" cy="307.9" r="4.609"/>
<circle cx="286.5" cy="307.9" r="4.609"/>
<circle cx="304.9" cy="307.9" r="4.609"/>
<circle cx="268.1" cy="326.4" r="4.609"/>
<circle cx="286.5" cy="326.4" r="4.609"/>
<circle cx="304.9" cy="326.4" r="4.609"/>
<circle cx="323.4" cy="326.4" r="4.609"/>
<rect x="226.6" y="321.7" width="27.65" height="9.217"/>
<circle cx="231.2" cy="271.1" r="4.609"/>
<circle cx="249.6" cy="271.1" r="4.609"/>
<circle cx="268.1" cy="271.1" r="4.609"/>
<rect x="281.9" y="266.4" width="27.65" height="9.217"/>
<rect x="318.8" y="266.4" width="27.65" height="9.217"/>
<circle cx="304.9" cy="344.8" r="4.609"/>
<circle cx="323.4" cy="344.8" r="4.609"/>
<circle cx="341.8" cy="344.8" r="4.609"/>
<rect x="226.6" y="340.2" width="27.65" height="9.217"/>
<rect x="263.5" y="340.2" width="27.65" height="9.217"/>
<circle cx="341.8" cy="363.2" r="4.609"/>
<circle cx="360.3" cy="363.2" r="4.609"/>
<rect x="263.5" y="358.6" width="27.65" height="9.217"/>
<rect x="300.3" y="358.6" width="27.65" height="9.217"/>
<rect x="226.6" y="358.6" width="27.65" height="9.217"/>
<rect x="226.6" y="377.0" width="27.65" height="9.217"/>
<rect x="263.5" y="377.0" width="27.65" height="9.217"/>
<rect x="263.5" y="377.0" width="27.65" height="9.217"/>
<rect x="300.3" y="377.0" width="27.65" height="9.217"/>
<rect x="337.2" y="377.0" width="27.65" height="9.217"/>
<rect x="226.6" y="395.5" width="27.65" height="9.217"/>
<circle cx="378.7" cy="381.7" r="4.609"/>
<rect x="263.5" y="395.5" width="27.65" height="9.217"/>
<rect x="300.3" y="395.5" width="27.65" height="9.217"/>
<rect x="300.3" y="395.5" width="27.65" height="9.217"/>
<rect x="337.2" y="395.5" width="27.65" height="9.217"/>
<rect x="374.1" y="395.5" width="27.65" height="9.217"/>
<text x="209.50" y="238.79">1</text>
<text x="209.03" y="257.22">2</text>
<text x="208.84" y="275.43">3</text>
<text x="209.14" y="294.09">4</text>
<text x="208.80" y="312.52">5</text>
<text x="208.89" y="330.96">6</text>
<text x="208.79" y="349.17">7</text>
<text x="208.84" y="367.82">8</text>
<text x="208.83" y="386.26">9</text>
<text x="208.87" y="404.70">0</text>
</svg>
